<?xml version="1.0" standalone="no"?>
<!DOCTYPE svg PUBLIC "-//W3C//DTD SVG 20010904//EN"
 "http://www.w3.org/TR/2001/REC-SVG-20010904/DTD/svg10.dtd">
<svg version="1.0" xmlns="http://www.w3.org/2000/svg"
 width="512.000000pt" height="512.000000pt" viewBox="0 0 512.000000 512.000000"
 preserveAspectRatio="xMidYMid meet">
<metadata>
Created by potrace 1.14, written by Peter Selinger 2001-2017
</metadata>
<g transform="translate(0.000000,512.000000) scale(0.100000,-0.100000)"
fill="#000000" stroke="none">
<path d="M928 5098 c-57 -33 -73 -70 -72 -168 0 -107 8 -172 39 -296 13 -54
23 -100 22 -100 -1 -1 -47 -4 -102 -7 -121 -7 -193 -27 -241 -69 -44 -39 -61
-73 -57 -120 6 -93 44 -172 139 -290 l54 -67 -57 -37 c-331 -211 -533 -445
-533 -617 0 -122 96 -244 248 -313 28 -14 52 -26 52 -29 0 -2 -40 -64 -89
-137 -141 -211 -206 -349 -235 -495 -38 -195 13 -330 160 -418 68 -41 154 -70
239 -80 33 -3 61 -8 62 -9 1 -1 -24 -17 -55 -36 -150 -89 -314 -235 -389 -346
-83 -124 -112 -216 -109 -345 2 -70 7 -96 29 -141 55 -112 132 -143 352 -142
154 0 430 12 453 19 19 7 16 1 -48 -88 -130 -181 -179 -326 -141 -413 51 -113
242 -136 596 -70 50 9 104 21 120 26 58 18 85 19 85 5 0 -20 48 -74 89 -99 44
-28 149 -55 251 -66 92 -9 1541 -5 1590 4 156 30 226 64 267 129 15 23 28 43
28 44 0 1 48 -9 105 -22 58 -13 121 -26 140 -29 19 -3 44 -7 55 -10 107 -21
296 -25 365 -6 202 54 191 235 -32 538 l-41 55 144 -7 c302 -15 433 -15 497
-1 88 19 140 57 177 130 28 55 30 66 29 164 0 90 -4 116 -27 174 -70 179 -246
364 -478 504 l-54 32 33 2 c17 1 35 2 40 3 4 1 25 5 47 10 161 31 276 109 332
224 23 49 27 70 27 147 -1 102 -4 122 -38 222 -37 108 -108 243 -204 388 -48
71 -88 133 -90 136 -2 4 19 17 45 30 246 116 314 301 188 509 -72 118 -221
257 -427 397 l-97 66 49 58 c120 144 167 274 130 356 -21 47 -42 66 -102 92
-55 23 -86 29 -198 37 -47 3 -86 7 -88 9 -1 1 6 37 18 79 11 42 22 91 25 109
27 178 27 278 0 325 -25 42 -80 70 -133 67 -66 -3 -92 -36 -197 -250 -52 -104
-120 -236 -152 -291 l-58 -102 -55 -11 c-30 -7 -95 -21 -144 -32 -48 -11 -89
-19 -91 -17 -1 2 -5 50 -9 108 -24 411 -138 625 -316 595 -136 -23 -328 -211
-475 -467 -27 -48 -52 -87 -55 -87 -3 0 -27 39 -55 87 -69 119 -181 267 -258
338 -233 219 -406 165 -487 -152 -12 -43 -23 -95 -26 -114 -3 -19 -7 -46 -10
-60 -2 -14 -7 -74 -10 -135 -4 -60 -7 -111 -8 -112 -1 -1 -42 6 -91 17 -208
44 -194 38 -222 83 -51 80 -85 145 -178 333 -99 199 -122 236 -158 256 -36 19
-91 17 -129 -4z"/>
</g>
</svg>
